<svg width="419" height="126" viewBox="0 0 419 126" fill="none" xmlns="http://www.w3.org/2000/svg">
<g filter="url(#filter0_d_1_40)">
<rect x="3.95611" y="0.529845" width="411.595" height="119.517" rx="2.17144" fill="#1F2633" stroke="#686868" stroke-width="0.482541"/>
<rect opacity="0.16" x="3.95833" y="0.529845" width="411.595" height="119.517" rx="4.75873" fill="url(#paint0_linear_1_40)" stroke="#686868" stroke-width="0.482541"/>
<path d="M72.2571 46.8657L4.84914 114.563V120.289H414.663V2.28857L326.462 39.9823L315.731 31.378L295.944 46.8657L253.689 20.4793L198.018 46.8657L191.982 39.9823L181.921 46.8657L160.793 20.4793L124.238 56.0435L114.178 46.8657L87.6838 56.0435L72.2571 46.8657Z" fill="url(#paint1_linear_1_40)"/>
<mask id="mask0_1_40" style="mask-type:alpha" maskUnits="userSpaceOnUse" x="3" y="0" width="413" height="121">
<rect x="3.95833" y="0.529845" width="411.595" height="119.517" rx="2.17144" fill="#1F2633" stroke="#686868" stroke-width="0.482541"/>
</mask>
<g mask="url(#mask0_1_40)">
</g>
</g>
<defs>
<filter id="filter0_d_1_40" x="0.89872" y="0.288574" width="417.712" height="125.632" filterUnits="userSpaceOnUse" color-interpolation-filters="sRGB">
<feFlood flood-opacity="0" result="BackgroundImageFix"/>
<feColorMatrix in="SourceAlpha" type="matrix" values="0 0 0 0 0 0 0 0 0 0 0 0 0 0 0 0 0 0 127 0" result="hardAlpha"/>
<feOffset dy="2.81612"/>
<feGaussianBlur stdDeviation="1.40806"/>
<feComposite in2="hardAlpha" operator="out"/>
<feColorMatrix type="matrix" values="0 0 0 0 0 0 0 0 0 0 0 0 0 0 0 0 0 0 0.25 0"/>
<feBlend mode="normal" in2="BackgroundImageFix" result="effect1_dropShadow_1_40"/>
<feBlend mode="normal" in="SourceGraphic" in2="effect1_dropShadow_1_40" result="shape"/>
</filter>
<linearGradient id="paint0_linear_1_40" x1="209.756" y1="0.288574" x2="209.756" y2="120.289" gradientUnits="userSpaceOnUse">
<stop stop-color="#2B3341"/>
<stop offset="0.9999" stop-color="#3D495F" stop-opacity="0.01"/>
<stop offset="1" stop-color="#212733" stop-opacity="0"/>
</linearGradient>
<linearGradient id="paint1_linear_1_40" x1="209.756" y1="17.6114" x2="209.756" y2="120.289" gradientUnits="userSpaceOnUse">
<stop stop-color="#7044D7"/>
<stop offset="1" stop-color="#1F2736" stop-opacity="0"/>
</linearGradient>
</defs>
</svg>
