<svg width="213" height="214" viewBox="0 0 213 214" fill="none" xmlns="http://www.w3.org/2000/svg">
<g clip-path="url(#clip0_1_28)">
<path d="M106.312 211.907C164.25 211.907 211.218 164.939 211.218 107.001C211.218 49.063 164.25 2.095 106.312 2.095C48.374 2.095 1.406 49.063 1.406 107.001C1.406 164.939 48.374 211.907 106.312 211.907Z" fill="#212834" stroke="#805AD5" stroke-width="2.52786"/>
<mask id="mask0_1_28" style="mask-type:alpha" maskUnits="userSpaceOnUse" x="0" y="0" width="213" height="214">
<path d="M106.312 211.844C164.215 211.844 211.155 164.904 211.155 107.001C211.155 49.0978 164.215 2.158 106.312 2.158C48.4088 2.158 1.469 49.0978 1.469 107.001C1.469 164.904 48.4088 211.844 106.312 211.844Z" fill="white" stroke="white" stroke-width="2.65425"/>
</mask>
<g mask="url(#mask0_1_28)">
<path opacity="0.4256" fill-rule="evenodd" clip-rule="evenodd" d="M509.581 180.438C509.581 180.438 421.823 105.012 361.618 131.843C301.412 158.674 194.825 199.524 194.825 199.524L228.283 427.796H585.984L581.498 203.158L509.581 180.438Z" fill="url(#paint0_linear_1_28)"/>
<path d="M218.74 105.85C179.21 103.69 180.529 124.792 141.059 122.635C101.53 120.475 100.211 99.3737 60.7412 97.2171C21.2121 95.0573 22.5309 116.159 -16.9392 114.002L-16.9982 113.999L-10.7433 214.076L263.187 229.043L256.187 117.035C246.801 111.731 236.734 106.833 218.74 105.85Z" fill="url(#paint1_linear_1_28)"/>
<path d="M106.312 211.907C164.25 211.907 211.218 164.939 211.218 107.001C211.218 49.063 164.25 2.095 106.312 2.095C48.374 2.095 1.406 49.063 1.406 107.001C1.406 164.939 48.374 211.907 106.312 211.907Z" stroke="#805AD5" stroke-width="2.52786"/>
</g>
<path fill-rule="evenodd" clip-rule="evenodd" d="M212.575 106.226C196.936 106.359 188.454 110.568 179.975 114.775C170.433 119.509 160.895 124.241 141.167 123.164C121.395 122.083 111.183 116.264 100.975 110.447C90.7738 104.634 80.5768 98.8234 60.8491 97.7456C41.0772 96.6653 31.5249 101.405 21.9762 106.142C15.7397 109.237 9.50473 112.33 0.425124 113.801C0.304188 111.725 0.242876 109.634 0.242876 107.528C0.242877 48.8918 47.7768 1.35785 106.413 1.35786C164.614 1.35786 211.878 48.1899 212.575 106.226Z" fill="url(#paint2_linear_1_28)"/>
</g>
<defs>
<linearGradient id="paint0_linear_1_28" x1="493.851" y1="104.834" x2="490.582" y2="427.776" gradientUnits="userSpaceOnUse">
<stop offset="0.4375" stop-color="#7277FF"/>
<stop offset="1" stop-color="#001AFF" stop-opacity="0"/>
</linearGradient>
<linearGradient id="paint1_linear_1_28" x1="118.648" y1="100.381" x2="112.07" y2="220.786" gradientUnits="userSpaceOnUse">
<stop stop-color="#AE89FF"/>
<stop offset="0.368052" stop-color="#AE8BFE" stop-opacity="0.989375"/>
<stop offset="1" stop-color="#854EFF" stop-opacity="0.98"/>
</linearGradient>
<linearGradient id="paint2_linear_1_28" x1="99.7449" y1="0.832327" x2="89.7322" y2="121.558" gradientUnits="userSpaceOnUse">
<stop stop-color="#783EF9"/>
<stop offset="0.432292" stop-color="#8F67EA"/>
<stop offset="1" stop-color="#905FFF"/>
</linearGradient>
<clipPath id="clip0_1_28">
<rect width="213" height="214" fill="white"/>
</clipPath>
</defs>
</svg>
