<svg width="52" height="252" viewBox="0 0 52 252" fill="none" xmlns="http://www.w3.org/2000/svg">
    <g opacity="0.2">
        <g opacity="0.8">
            <path fill-rule="evenodd" clip-rule="evenodd" d="M1.63177 227.341L26.5012 234.447V227.341H1.63177Z" fill="#805AD5"/>
            <rect x="1.63177" y="28.386" width="24.8694" height="198.955" fill="#805AD5"/>
        </g>
        <g opacity="0.6">
            <path fill-rule="evenodd" clip-rule="evenodd" d="M26.5012 234.447L51.3705 227.341H26.5012L26.5012 234.447Z" fill="#805AD5"/>
            <rect width="24.8694" height="198.955" transform="matrix(-1 0 0 1 51.3706 28.386)" fill="#805AD5"/>
        </g>
        <rect width="25.8646" height="25.8646" transform="matrix(0.961524 0.274721 -0.961524 0.274721 26.5012 21.2805)" fill="#805AD5"/>
    </g>
    <g opacity="0.8">
        <path fill-rule="evenodd" clip-rule="evenodd" d="M1.63177 227.338L26.5012 234.443V227.338L1.63177 227.338Z" fill="#805AD5"/>
        <rect x="1.63177" y="195.363" width="24.8694" height="31.9749" fill="#F7F4FF"/>
    </g>
    <g opacity="0.6">
        <path fill-rule="evenodd" clip-rule="evenodd" d="M26.5012 234.443L51.3705 227.338L26.5012 227.338L26.5012 234.443Z" fill="#805AD5"/>
        <rect width="24.8694" height="31.9749" transform="matrix(-1 0 0 1 51.3706 195.363)" fill="#DCCDFF"/>
    </g>
    <rect width="25.8646" height="25.8646" transform="matrix(0.961524 0.274721 -0.961524 0.274721 26.5012 188.257)" fill="#805AD5"/>
    <path d="M16.2988 6.87261L13.3713 10.0985H17.8904V11.4059H11.3391V10.2264L14.7071 6.61681C15.3135 5.98205 15.7446 5.46571 16.0004 5.0678C16.2562 4.66042 16.3841 4.23882 16.3841 3.80302C16.3841 3.29142 16.1993 2.86982 15.8298 2.53823C15.4698 2.19716 15.0198 2.02663 14.4798 2.02663C13.6082 2.02663 12.7602 2.42454 11.936 3.22036L11.1544 2.21137C12.1681 1.2166 13.286 0.71921 14.5082 0.71921C15.4651 0.71921 16.2467 1.00817 16.853 1.58609C17.4594 2.164 17.7625 2.92666 17.7625 3.87407C17.7625 4.80253 17.2746 5.80204 16.2988 6.87261ZM22.6454 4.5562C23.6591 4.5562 24.4975 4.88779 25.1607 5.55098C25.8334 6.20469 26.1697 7.03367 26.1697 8.03792C26.1697 9.06112 25.8192 9.90904 25.1181 10.5817C24.4265 11.2449 23.5359 11.5765 22.4464 11.5765C21.2148 11.5765 20.0921 11.1549 19.0784 10.3117L19.7463 9.20323C20.599 9.91378 21.4801 10.2691 22.3896 10.2691C23.0717 10.2691 23.6354 10.0606 24.0807 9.64377C24.5165 9.21744 24.7344 8.68689 24.7344 8.05213C24.7344 7.42684 24.5212 6.90577 24.0949 6.48891C23.6686 6.06258 23.1285 5.84941 22.4748 5.84941C21.7169 5.84941 21.0727 6.1289 20.5421 6.68787L19.6042 6.14784L20.2011 0.903955H25.4592V2.16874H21.2953L20.94 4.96832C21.4706 4.69358 22.039 4.5562 22.6454 4.5562ZM31.7584 5.13886C31.2279 5.64098 30.6026 5.89204 29.8826 5.89204C29.1531 5.89204 28.5231 5.64098 27.9925 5.13886C27.4714 4.62726 27.2109 4.01618 27.2109 3.30563C27.2109 2.5856 27.4714 1.97926 27.9925 1.48661C28.5136 0.97501 29.1436 0.71921 29.8826 0.71921C30.6026 0.71921 31.2279 0.97501 31.7584 1.48661C32.2795 1.97926 32.5401 2.5856 32.5401 3.30563C32.5401 4.01618 32.2795 4.62726 31.7584 5.13886ZM29.7831 11.4059H28.362L36.0928 0.903955H37.5281L29.7831 11.4059ZM29.8826 1.77083C29.4373 1.77083 29.0678 1.91768 28.7741 2.21137C28.4804 2.50507 28.3336 2.86982 28.3336 3.30563C28.3336 3.74143 28.4804 4.11092 28.7741 4.41409C29.0773 4.70779 29.4468 4.85464 29.8826 4.85464C30.3184 4.85464 30.6831 4.70779 30.9768 4.41409C31.28 4.11092 31.4316 3.74143 31.4316 3.30563C31.4316 2.86982 31.28 2.50507 30.9768 2.21137C30.6831 1.91768 30.3184 1.77083 29.8826 1.77083ZM34.1885 10.8233C33.6675 10.3306 33.4069 9.72904 33.4069 9.01848C33.4069 8.30793 33.6675 7.69685 34.1885 7.18525C34.7096 6.67365 35.3396 6.41785 36.0786 6.41785C36.8176 6.41785 37.4476 6.67365 37.9687 7.18525C38.4992 7.69685 38.7645 8.30793 38.7645 9.01848C38.7645 9.71956 38.4992 10.3212 37.9687 10.8233C37.4381 11.3254 36.8081 11.5765 36.0786 11.5765C35.3491 11.5765 34.7191 11.3254 34.1885 10.8233ZM36.0786 10.5391C36.5239 10.5391 36.8934 10.397 37.1871 10.1127C37.4902 9.81904 37.6418 9.45429 37.6418 9.01848C37.6418 8.5732 37.4902 8.19898 37.1871 7.89581C36.8934 7.59264 36.5239 7.44105 36.0786 7.44105C35.6428 7.44105 35.2733 7.59264 34.9702 7.89581C34.6765 8.19898 34.5296 8.5732 34.5296 9.01848C34.5296 9.44482 34.6812 9.80483 34.9844 10.0985C35.2875 10.3922 35.6523 10.5391 36.0786 10.5391Z" fill="white" fill-opacity="0.6"/>
    <path d="M5.64537 251.085C4.1011 251.085 2.81736 250.574 1.79417 249.55C0.780441 248.518 0.273579 247.229 0.273579 245.685C0.273579 244.112 0.804126 242.814 1.86522 241.791C2.92631 240.759 4.21479 240.242 5.73063 240.242C6.60225 240.242 7.42649 240.417 8.20336 240.768C8.98971 241.119 9.62447 241.588 10.1076 242.175L9.09866 243.099C8.21757 242.113 7.09964 241.621 5.74485 241.621C4.61743 241.621 3.66055 242.004 2.87421 242.772C2.10681 243.539 1.72311 244.515 1.72311 245.699C1.72311 246.855 2.10681 247.817 2.87421 248.584C3.65108 249.342 4.59375 249.721 5.70221 249.721C6.31803 249.721 6.92437 249.588 7.52123 249.323C8.1181 249.058 8.63443 248.698 9.07024 248.243V246.154H5.5601V244.847H10.4061V248.868C9.12708 250.346 7.54018 251.085 5.64537 251.085ZM18.2296 244.42V243.312H19.537V250.929H18.2296V249.849C17.5475 250.692 16.6522 251.114 15.5437 251.114C14.4447 251.114 13.5352 250.725 12.8152 249.948C12.0952 249.172 11.7351 248.21 11.7351 247.064C11.7351 245.917 12.0952 244.979 12.8152 244.25C13.5352 243.501 14.4447 243.127 15.5437 243.127C16.6238 243.127 17.5191 243.558 18.2296 244.42ZM18.3149 247.106C18.3149 246.339 18.0733 245.695 17.5901 245.173C17.1069 244.643 16.4769 244.378 15.7 244.378C14.9232 244.378 14.2979 244.643 13.8242 245.173C13.3505 245.704 13.1136 246.353 13.1136 247.12C13.1136 247.888 13.3505 248.537 13.8242 249.067C14.2979 249.598 14.9232 249.863 15.7 249.863C16.4769 249.863 17.1069 249.598 17.5901 249.067C18.0733 248.546 18.3149 247.893 18.3149 247.106ZM26.1173 249.423L26.6289 250.474C26.0794 250.901 25.402 251.114 24.5967 251.114C23.8009 251.114 23.1946 250.867 22.7777 250.375C22.3703 249.882 22.1666 249.176 22.1666 248.257V244.477H20.8166V243.312H22.1809V240.612H23.5167V243.312H26.2168V244.477H23.5167V248.357C23.5167 249.361 23.9288 249.863 24.7531 249.863C25.1983 249.863 25.6531 249.716 26.1173 249.423ZM34.6858 246.978C34.6858 247.073 34.6716 247.305 34.6432 247.675H28.5751C28.6982 248.347 28.9824 248.878 29.4277 249.266C29.873 249.655 30.4793 249.849 31.2467 249.849C31.7015 249.849 32.1705 249.773 32.6536 249.622C33.1368 249.46 33.5537 249.252 33.9042 248.996L34.4869 250.034C34.089 250.337 33.5963 250.593 33.0089 250.801C32.4215 251 31.8247 251.099 31.2183 251.099C30.5267 251.099 29.9109 250.986 29.3709 250.758C28.8403 250.531 28.4187 250.223 28.1061 249.835C27.7935 249.446 27.5566 249.02 27.3955 248.556C27.2345 248.091 27.154 247.604 27.154 247.092C27.154 245.955 27.5092 245.008 28.2198 244.25C28.9398 243.501 29.8683 243.127 31.0052 243.127C32.0852 243.127 32.9663 243.473 33.6484 244.164C34.34 244.856 34.6858 245.794 34.6858 246.978ZM28.5751 246.495H33.2789C33.241 245.841 33.0089 245.32 32.5826 244.932C32.1657 244.534 31.6399 244.335 31.0052 244.335C30.3893 244.335 29.8588 244.539 29.4135 244.946C28.9682 245.344 28.6887 245.86 28.5751 246.495ZM35.9837 250.233C35.9837 249.986 36.069 249.778 36.2395 249.607C36.4195 249.437 36.6374 249.352 36.8932 249.352C37.149 249.352 37.3622 249.437 37.5327 249.607C37.7127 249.778 37.8027 249.986 37.8027 250.233C37.8027 250.498 37.7127 250.721 37.5327 250.901C37.3622 251.071 37.149 251.156 36.8932 251.156C36.6374 251.156 36.4195 251.071 36.2395 250.901C36.069 250.721 35.9837 250.498 35.9837 250.233ZM40.3099 242.232C40.0256 242.232 39.7888 242.142 39.5993 241.962C39.4098 241.772 39.3151 241.535 39.3151 241.251C39.3151 240.976 39.4098 240.749 39.5993 240.569C39.7888 240.389 40.0256 240.299 40.3099 240.299C40.5751 240.299 40.8025 240.394 40.992 240.583C41.1815 240.763 41.2762 240.986 41.2762 241.251C41.2762 241.535 41.1815 241.772 40.992 241.962C40.8025 242.142 40.5751 242.232 40.3099 242.232ZM40.9636 243.312V250.929H39.5993V243.312H40.9636ZM46.6212 251.114C45.4559 251.114 44.4943 250.73 43.7364 249.963C42.9879 249.186 42.6137 248.234 42.6137 247.106C42.6137 245.979 42.9879 245.036 43.7364 244.278C44.4848 243.501 45.4465 243.113 46.6212 243.113C47.7771 243.113 48.7292 243.501 49.4777 244.278C50.2356 245.065 50.6146 246.007 50.6146 247.106C50.6146 248.224 50.2356 249.176 49.4777 249.963C48.7198 250.73 47.7676 251.114 46.6212 251.114ZM49.2503 247.106C49.2503 246.358 48.9945 245.718 48.4829 245.188C47.9713 244.648 47.3507 244.378 46.6212 244.378C45.8917 244.378 45.2712 244.648 44.7596 245.188C44.248 245.718 43.9922 246.358 43.9922 247.106C43.9922 247.864 44.248 248.513 44.7596 249.053C45.2712 249.593 45.8917 249.863 46.6212 249.863C47.3507 249.863 47.9713 249.593 48.4829 249.053C48.9945 248.513 49.2503 247.864 49.2503 247.106Z" fill="white" fill-opacity="0.6"/>
</svg>
