<svg width="51" height="254" viewBox="0 0 51 254" fill="none" xmlns="http://www.w3.org/2000/svg">
    <g opacity="0.2">
        <g opacity="0.8">
            <path fill-rule="evenodd" clip-rule="evenodd" d="M0.481323 227.341H25.3507L25.3507 234.447L0.481323 227.341Z" fill="#805AD5"/>
            <rect x="0.481354" y="28.386" width="24.8694" height="198.955" fill="#805AD5"/>
        </g>
        <g opacity="0.6">
            <path fill-rule="evenodd" clip-rule="evenodd" d="M50.2202 227.341H25.3507L25.3508 234.447L50.2202 227.341Z" fill="#805AD5"/>
            <rect width="24.8694" height="198.955" transform="matrix(-1 0 0 1 50.2201 28.386)" fill="#805AD5"/>
        </g>
        <rect width="25.8646" height="25.8646" transform="matrix(0.961524 0.274721 -0.961524 0.274721 25.3507 21.2805)" fill="#805AD5"/>
    </g>
    <g opacity="0.8">
        <path fill-rule="evenodd" clip-rule="evenodd" d="M0.481323 226.451L25.3507 226.451L25.3507 233.557L0.481323 226.451Z" fill="#805AD5"/>
        <rect x="0.481354" y="126.085" width="24.8694" height="100.366" fill="#F7F4FF"/>
    </g>
    <g opacity="0.6">
        <path fill-rule="evenodd" clip-rule="evenodd" d="M50.2202 226.451L25.3507 226.451L25.3508 233.557L50.2202 226.451Z" fill="#805AD5"/>
        <rect width="24.8694" height="100.366" transform="matrix(-1 0 0 1 50.2201 126.085)" fill="#DCCDFF"/>
    </g>
    <rect width="25.8646" height="25.8646" transform="matrix(0.961524 0.274721 -0.961524 0.274721 25.3507 118.98)" fill="#805AD5"/>
    <path d="M13.5543 4.5562C14.568 4.5562 15.4065 4.88779 16.0696 5.55098C16.7423 6.20469 17.0786 7.03367 17.0786 8.03792C17.0786 9.06112 16.7281 9.90904 16.027 10.5817C15.3354 11.2449 14.4448 11.5765 13.3553 11.5765C12.1237 11.5765 11.001 11.1549 9.9873 10.3117L10.6552 9.20323C11.5079 9.91378 12.389 10.2691 13.2985 10.2691C13.9806 10.2691 14.5443 10.0606 14.9896 9.64377C15.4254 9.21744 15.6433 8.68689 15.6433 8.05213C15.6433 7.42684 15.4301 6.90577 15.0038 6.48891C14.5775 6.06258 14.0375 5.84941 13.3837 5.84941C12.6258 5.84941 11.9816 6.1289 11.451 6.68787L10.5131 6.14784L11.11 0.903955H16.3681V2.16874H12.2042L11.849 4.96832C12.3795 4.69358 12.9479 4.5562 13.5543 4.5562ZM23.2784 6.87261L20.351 10.0985H24.8701V11.4059H18.3188V10.2264L21.6868 6.61681C22.2931 5.98205 22.7242 5.46571 22.98 5.0678C23.2358 4.66042 23.3637 4.23882 23.3637 3.80302C23.3637 3.29142 23.179 2.86982 22.8095 2.53823C22.4495 2.19716 21.9994 2.02663 21.4594 2.02663C20.5878 2.02663 19.7399 2.42454 18.9156 3.22036L18.134 2.21137C19.1477 1.2166 20.2657 0.71921 21.4878 0.71921C22.4447 0.71921 23.2263 1.00817 23.8327 1.58609C24.439 2.164 24.7422 2.92666 24.7422 3.87407C24.7422 4.80253 24.2543 5.80204 23.2784 6.87261ZM30.6056 5.13886C30.075 5.64098 29.4497 5.89204 28.7297 5.89204C28.0002 5.89204 27.3702 5.64098 26.8396 5.13886C26.3186 4.62726 26.058 4.01618 26.058 3.30563C26.058 2.5856 26.3186 1.97926 26.8396 1.48661C27.3607 0.97501 27.9907 0.71921 28.7297 0.71921C29.4497 0.71921 30.075 0.97501 30.6056 1.48661C31.1267 1.97926 31.3872 2.5856 31.3872 3.30563C31.3872 4.01618 31.1267 4.62726 30.6056 5.13886ZM28.6302 11.4059H27.2091L34.94 0.903955H36.3753L28.6302 11.4059ZM28.7297 1.77083C28.2844 1.77083 27.915 1.91768 27.6213 2.21137C27.3276 2.50507 27.1807 2.86982 27.1807 3.30563C27.1807 3.74143 27.3276 4.11092 27.6213 4.41409C27.9244 4.70779 28.2939 4.85464 28.7297 4.85464C29.1655 4.85464 29.5303 4.70779 29.824 4.41409C30.1271 4.11092 30.2787 3.74143 30.2787 3.30563C30.2787 2.86982 30.1271 2.50507 29.824 2.21137C29.5303 1.91768 29.1655 1.77083 28.7297 1.77083ZM33.0357 10.8233C32.5146 10.3306 32.2541 9.72904 32.2541 9.01848C32.2541 8.30793 32.5146 7.69685 33.0357 7.18525C33.5568 6.67365 34.1868 6.41785 34.9258 6.41785C35.6647 6.41785 36.2948 6.67365 36.8158 7.18525C37.3464 7.69685 37.6116 8.30793 37.6116 9.01848C37.6116 9.71956 37.3464 10.3212 36.8158 10.8233C36.2853 11.3254 35.6553 11.5765 34.9258 11.5765C34.1963 11.5765 33.5662 11.3254 33.0357 10.8233ZM34.9258 10.5391C35.371 10.5391 35.7405 10.397 36.0342 10.1127C36.3374 9.81904 36.489 9.45429 36.489 9.01848C36.489 8.5732 36.3374 8.19898 36.0342 7.89581C35.7405 7.59264 35.371 7.44105 34.9258 7.44105C34.4899 7.44105 34.1205 7.59264 33.8173 7.89581C33.5236 8.19898 33.3767 8.5732 33.3767 9.01848C33.3767 9.44482 33.5283 9.80483 33.8315 10.0985C34.1347 10.3922 34.4994 10.5391 34.9258 10.5391Z" fill="white" fill-opacity="0.6"/>
    <path d="M7.57862 252.997H6.1433V242.495H7.57862V246.929H12.8509V242.495H14.272V252.997H12.8509V248.293H7.57862V252.997ZM19.7423 253.182C18.7475 253.182 17.9517 252.888 17.3548 252.301C16.7675 251.713 16.4738 250.922 16.4738 249.927V245.38H17.838V249.885C17.838 250.51 18.0038 251.007 18.3354 251.377C18.6765 251.737 19.1454 251.917 19.7423 251.917C20.3392 251.917 20.8081 251.737 21.1492 251.377C21.4903 251.007 21.6608 250.51 21.6608 249.885V245.38H23.0109V249.927C23.0109 250.941 22.7172 251.737 22.1298 252.315C21.5519 252.893 20.756 253.182 19.7423 253.182ZM28.5635 253.182C27.3982 253.182 26.4366 252.798 25.6787 252.031C24.9302 251.254 24.556 250.302 24.556 249.174C24.556 248.047 24.9302 247.104 25.6787 246.346C26.4271 245.569 27.3887 245.181 28.5635 245.181C29.7193 245.181 30.6715 245.569 31.4199 246.346C32.1779 247.133 32.5568 248.075 32.5568 249.174C32.5568 250.292 32.1779 251.244 31.4199 252.031C30.662 252.798 29.7099 253.182 28.5635 253.182ZM31.1926 249.174C31.1926 248.426 30.9368 247.786 30.4252 247.256C29.9136 246.716 29.293 246.446 28.5635 246.446C27.834 246.446 27.2135 246.716 26.7019 247.256C26.1903 247.786 25.9345 248.426 25.9345 249.174C25.9345 249.932 26.1903 250.581 26.7019 251.121C27.2135 251.661 27.834 251.931 28.5635 251.931C29.293 251.931 29.9136 251.661 30.4252 251.121C30.9368 250.581 31.1926 249.932 31.1926 249.174ZM38.2346 245.195C39.3146 245.195 40.2147 245.584 40.9347 246.36C41.6642 247.137 42.0289 248.08 42.0289 249.188C42.0289 250.297 41.6642 251.244 40.9347 252.031C40.2052 252.798 39.3004 253.182 38.2204 253.182C37.1214 253.182 36.2308 252.751 35.5487 251.889V252.997H34.1844V242.239H35.5487V246.531C36.2403 245.64 37.1356 245.195 38.2346 245.195ZM38.0641 251.903C38.8409 251.903 39.4615 251.642 39.9257 251.121C40.4089 250.6 40.6505 249.951 40.6505 249.174C40.6505 248.426 40.4089 247.786 39.9257 247.256C39.4615 246.735 38.8409 246.474 38.0641 246.474C37.2777 246.474 36.6524 246.735 36.1882 247.256C35.724 247.777 35.4919 248.416 35.4919 249.174C35.4919 249.951 35.724 250.6 36.1882 251.121C36.6524 251.642 37.2777 251.903 38.0641 251.903ZM44.3875 244.3C44.1033 244.3 43.8665 244.21 43.677 244.03C43.4875 243.84 43.3928 243.603 43.3928 243.319C43.3928 243.045 43.4875 242.817 43.677 242.637C43.8665 242.457 44.1033 242.367 44.3875 242.367C44.6528 242.367 44.8802 242.462 45.0697 242.651C45.2592 242.831 45.3539 243.054 45.3539 243.319C45.3539 243.603 45.2592 243.84 45.0697 244.03C44.8802 244.21 44.6528 244.3 44.3875 244.3ZM45.0413 245.38V252.997H43.677V245.38H45.0413Z" fill="white" fill-opacity="0.6"/>
</svg>
