<svg width="60" height="252" viewBox="0 0 60 252" fill="none" xmlns="http://www.w3.org/2000/svg">
    <g opacity="0.2">
        <g opacity="0.8">
            <path fill-rule="evenodd" clip-rule="evenodd" d="M5.58163 227.341L30.451 234.447V227.341H5.58163Z" fill="#805AD5"/>
            <rect x="5.58163" y="28.386" width="24.8694" height="198.955" fill="#805AD5"/>
        </g>
        <g opacity="0.6">
            <path fill-rule="evenodd" clip-rule="evenodd" d="M30.451 234.447L55.3204 227.341H30.451L30.451 234.447Z" fill="#805AD5"/>
            <rect width="24.8694" height="198.955" transform="matrix(-1 0 0 1 55.3204 28.386)" fill="#805AD5"/>
        </g>
        <rect width="25.8646" height="25.8646" transform="matrix(0.961524 0.274721 -0.961524 0.274721 30.451 21.2805)" fill="#805AD5"/>
    </g>
    <g opacity="0.8">
        <path fill-rule="evenodd" clip-rule="evenodd" d="M5.58163 228.226L30.451 235.331V228.226L5.58163 228.226Z" fill="#805AD5"/>
        <rect x="5.58163" y="87.0033" width="24.8694" height="141.223" fill="#F7F4FF"/>
    </g>
    <g opacity="0.6">
        <path fill-rule="evenodd" clip-rule="evenodd" d="M30.451 235.331L55.3204 228.226L30.451 228.226L30.451 235.331Z" fill="#805AD5"/>
        <rect width="24.8694" height="141.223" transform="matrix(-1 0 0 1 55.3204 87.0033)" fill="#DCCDFF"/>
    </g>
    <rect width="25.8646" height="25.8646" transform="matrix(0.961524 0.274721 -0.961524 0.274721 30.451 79.8977)" fill="#805AD5"/>
    <path d="M15.0767 2.16874V0.903955H21.6848V1.74241L17.592 11.4059H16.0715L20.079 2.16874H15.0767ZM26.3064 11.5338C25.0748 11.5338 24.1321 11.0601 23.4784 10.1127C22.8247 9.15586 22.4979 7.94318 22.4979 6.4747C22.4979 5.46098 22.6494 4.53252 22.9526 3.68933C23.2558 2.83666 23.7437 2.13084 24.4164 1.57188C25.089 1.00343 25.899 0.71921 26.8465 0.71921C27.9075 0.71921 28.8028 1.01291 29.5323 1.6003L28.9355 2.66613C28.3197 2.19243 27.6517 1.95557 26.9317 1.95557C26.2591 1.95557 25.6811 2.19243 25.198 2.66613C24.7148 3.13036 24.369 3.67512 24.1606 4.3004C23.9616 4.91622 23.8669 5.53677 23.8763 6.16206V6.2189C24.1037 5.73572 24.459 5.35202 24.9422 5.0678C25.4253 4.77411 25.9748 4.62726 26.5907 4.62726C27.5381 4.62726 28.3244 4.94938 28.9497 5.59361C29.575 6.22837 29.8876 7.03841 29.8876 8.02371C29.8876 9.02796 29.5513 9.86641 28.8786 10.5391C28.2155 11.2023 27.3581 11.5338 26.3064 11.5338ZM26.3206 10.2691C26.9365 10.2691 27.4528 10.0559 27.8696 9.62956C28.296 9.18428 28.5091 8.64899 28.5091 8.02371C28.5091 7.40789 28.3007 6.89156 27.8839 6.4747C27.4765 6.06731 26.9649 5.86362 26.3491 5.86362C25.7238 5.86362 25.2027 6.07205 24.7858 6.48891C24.369 6.90577 24.1606 7.4221 24.1606 8.03792C24.1606 8.65373 24.369 9.18428 24.7858 9.62956C25.1932 10.0559 25.7048 10.2691 26.3206 10.2691ZM35.5328 5.13886C35.0022 5.64098 34.3769 5.89204 33.6569 5.89204C32.9274 5.89204 32.2974 5.64098 31.7668 5.13886C31.2457 4.62726 30.9852 4.01618 30.9852 3.30563C30.9852 2.5856 31.2457 1.97926 31.7668 1.48661C32.2879 0.97501 32.9179 0.71921 33.6569 0.71921C34.3769 0.71921 35.0022 0.97501 35.5328 1.48661C36.0538 1.97926 36.3144 2.5856 36.3144 3.30563C36.3144 4.01618 36.0538 4.62726 35.5328 5.13886ZM33.5574 11.4059H32.1363L39.8671 0.903955H41.3025L33.5574 11.4059ZM33.6569 1.77083C33.2116 1.77083 32.8421 1.91768 32.5484 2.21137C32.2547 2.50507 32.1079 2.86982 32.1079 3.30563C32.1079 3.74143 32.2547 4.11092 32.5484 4.41409C32.8516 4.70779 33.2211 4.85464 33.6569 4.85464C34.0927 4.85464 34.4574 4.70779 34.7511 4.41409C35.0543 4.11092 35.2059 3.74143 35.2059 3.30563C35.2059 2.86982 35.0543 2.50507 34.7511 2.21137C34.4574 1.91768 34.0927 1.77083 33.6569 1.77083ZM37.9628 10.8233C37.4418 10.3306 37.1812 9.72904 37.1812 9.01848C37.1812 8.30793 37.4418 7.69685 37.9628 7.18525C38.4839 6.67365 39.1139 6.41785 39.8529 6.41785C40.5919 6.41785 41.2219 6.67365 41.743 7.18525C42.2735 7.69685 42.5388 8.30793 42.5388 9.01848C42.5388 9.71956 42.2735 10.3212 41.743 10.8233C41.2124 11.3254 40.5824 11.5765 39.8529 11.5765C39.1234 11.5765 38.4934 11.3254 37.9628 10.8233ZM39.8529 10.5391C40.2982 10.5391 40.6677 10.397 40.9614 10.1127C41.2646 9.81904 41.4161 9.45429 41.4161 9.01848C41.4161 8.5732 41.2646 8.19898 40.9614 7.89581C40.6677 7.59264 40.2982 7.44105 39.8529 7.44105C39.4171 7.44105 39.0476 7.59264 38.7445 7.89581C38.4508 8.19898 38.3039 8.5732 38.3039 9.01848C38.3039 9.44482 38.4555 9.80483 38.7587 10.0985C39.0618 10.3922 39.4266 10.5391 39.8529 10.5391Z" fill="white" fill-opacity="0.6"/>
    <path d="M5.64623 251.071C4.28397 251.071 3.13456 250.62 2.19801 249.717C1.26145 248.806 0.793177 247.648 0.793177 246.244C0.793177 244.813 1.26997 243.638 2.22355 242.719C3.17713 241.791 4.3308 241.327 5.68454 241.327C6.54447 241.327 7.33628 241.518 8.05999 241.901C8.78369 242.267 9.34988 242.766 9.75855 243.396L8.81349 244.187C8.01316 243.106 6.97869 242.565 5.71009 242.565C4.70542 242.565 3.85401 242.915 3.15585 243.613C2.45769 244.311 2.10861 245.192 2.10861 246.256C2.10861 247.295 2.44917 248.155 3.13031 248.836C3.81144 249.509 4.66711 249.845 5.69731 249.845C6.32736 249.845 6.91484 249.705 7.45974 249.424C8.00464 249.143 8.47292 248.751 8.86457 248.249L9.7841 249.028C9.33285 249.658 8.74112 250.156 8.0089 250.522C7.2852 250.888 6.49764 251.071 5.64623 251.071ZM14.2335 251.097C13.1862 251.097 12.322 250.752 11.6409 250.062C10.9683 249.364 10.632 248.508 10.632 247.495C10.632 246.482 10.9683 245.635 11.6409 244.954C12.3135 244.256 13.1777 243.906 14.2335 243.906C15.2722 243.906 16.1279 244.256 16.8005 244.954C17.4816 245.66 17.8222 246.508 17.8222 247.495C17.8222 248.5 17.4816 249.355 16.8005 250.062C16.1193 250.752 15.2637 251.097 14.2335 251.097ZM16.5961 247.495C16.5961 246.823 16.3662 246.248 15.9065 245.771C15.4467 245.286 14.889 245.043 14.2335 245.043C13.5779 245.043 13.0202 245.286 12.5604 245.771C12.1007 246.248 11.8708 246.823 11.8708 247.495C11.8708 248.176 12.1007 248.76 12.5604 249.245C13.0202 249.73 13.5779 249.973 14.2335 249.973C14.889 249.973 15.4467 249.73 15.9065 249.245C16.3662 248.76 16.5961 248.176 16.5961 247.495ZM19.9234 243.115C19.668 243.115 19.4551 243.034 19.2849 242.872C19.1146 242.702 19.0294 242.489 19.0294 242.233C19.0294 241.987 19.1146 241.782 19.2849 241.62C19.4551 241.459 19.668 241.378 19.9234 241.378C20.1618 241.378 20.3662 241.463 20.5364 241.633C20.7067 241.795 20.7919 241.995 20.7919 242.233C20.7919 242.489 20.7067 242.702 20.5364 242.872C20.3662 243.034 20.1618 243.115 19.9234 243.115ZM20.5109 244.085V250.931H19.2849V244.085H20.5109ZM23.6413 250.931H22.4153V244.085H23.6158V245.056C24.05 244.29 24.7737 243.906 25.7869 243.906C26.5532 243.906 27.196 244.153 27.7153 244.647C28.2347 245.141 28.4944 245.852 28.4944 246.78V250.931H27.2811V247.125C27.2811 246.469 27.1194 245.958 26.7958 245.592C26.4808 245.226 26.0594 245.043 25.5315 245.043C24.9781 245.043 24.5226 245.239 24.165 245.631C23.8159 246.031 23.6413 246.533 23.6413 247.138V250.931ZM33.9498 243.919C34.9204 243.919 35.7292 244.268 36.3763 244.966C37.0319 245.665 37.3597 246.512 37.3597 247.508C37.3597 248.504 37.0319 249.355 36.3763 250.062C35.7207 250.752 34.9076 251.097 33.937 251.097C32.9494 251.097 32.149 250.709 31.536 249.934V250.931H30.31V241.263H31.536V245.12C32.1576 244.319 32.9621 243.919 33.9498 243.919ZM33.7965 249.947C34.4947 249.947 35.0524 249.713 35.4696 249.245C35.9038 248.777 36.1209 248.193 36.1209 247.495C36.1209 246.823 35.9038 246.248 35.4696 245.771C35.0524 245.303 34.4947 245.069 33.7965 245.069C33.0899 245.069 32.5279 245.303 32.1107 245.771C31.6935 246.239 31.4849 246.814 31.4849 247.495C31.4849 248.193 31.6935 248.777 32.1107 249.245C32.5279 249.713 33.0899 249.947 33.7965 249.947ZM44.2557 245.081V244.085H45.4307V250.931H44.2557V249.96C43.6427 250.718 42.8381 251.097 41.842 251.097C40.8544 251.097 40.037 250.748 39.3899 250.049C38.7428 249.351 38.4193 248.487 38.4193 247.457C38.4193 246.427 38.7428 245.584 39.3899 244.928C40.037 244.256 40.8544 243.919 41.842 243.919C42.8126 243.919 43.6172 244.307 44.2557 245.081ZM44.3324 247.495C44.3324 246.806 44.1153 246.227 43.681 245.758C43.2468 245.281 42.6806 245.043 41.9825 245.043C41.2843 245.043 40.7224 245.281 40.2967 245.758C39.871 246.235 39.6581 246.818 39.6581 247.508C39.6581 248.198 39.871 248.781 40.2967 249.258C40.7224 249.734 41.2843 249.973 41.9825 249.973C42.6806 249.973 43.2468 249.734 43.681 249.258C44.1153 248.789 44.3324 248.202 44.3324 247.495ZM49.2498 251.084C48.7219 251.084 48.2281 250.956 47.7683 250.701C47.3171 250.445 46.9637 250.079 46.7083 249.602L47.5895 248.926C47.7768 249.275 48.0237 249.543 48.3303 249.73C48.6453 249.917 48.9646 250.011 49.2881 250.011C49.6457 250.011 49.9352 249.922 50.1565 249.743C50.3864 249.556 50.5014 249.33 50.5014 249.066C50.5014 248.7 50.2928 248.41 49.8756 248.198C49.7649 248.138 49.4797 248.01 49.0199 247.814C48.5942 247.636 48.3132 247.508 48.177 247.431C47.4788 247.048 47.1298 246.495 47.1298 245.771C47.1298 245.218 47.3341 244.762 47.7428 244.405C48.1429 244.038 48.6836 243.855 49.3647 243.855C49.8075 243.855 50.2246 243.949 50.6163 244.136C51.0079 244.324 51.3145 244.592 51.5358 244.941L50.7568 245.682C50.3822 245.154 49.8926 244.89 49.2881 244.89C48.9901 244.89 48.7517 244.971 48.5729 245.132C48.3941 245.286 48.3047 245.482 48.3047 245.72C48.3047 246.078 48.4963 246.346 48.8794 246.525L49.6329 246.857C50.0416 247.018 50.3481 247.159 50.5524 247.278C51.3272 247.67 51.7146 248.244 51.7146 249.002C51.7146 249.59 51.4847 250.083 51.025 250.484C50.5567 250.884 49.965 251.084 49.2498 251.084ZM59.4936 247.38C59.4936 247.465 59.4808 247.674 59.4553 248.006H54.002C54.1126 248.611 54.3681 249.087 54.7682 249.436C55.1684 249.785 55.7133 249.96 56.4029 249.96C56.8116 249.96 57.2331 249.892 57.6673 249.756C58.1015 249.611 58.4761 249.424 58.7912 249.194L59.3148 250.126C58.9572 250.398 58.5144 250.628 57.9866 250.816C57.4587 250.994 56.9223 251.084 56.3774 251.084C55.7559 251.084 55.2024 250.982 54.7171 250.777C54.2404 250.573 53.8615 250.296 53.5805 249.947C53.2995 249.598 53.0867 249.215 52.9419 248.798C52.7972 248.381 52.7248 247.942 52.7248 247.482C52.7248 246.461 53.0441 245.609 53.6827 244.928C54.3297 244.256 55.1641 243.919 56.1858 243.919C57.1564 243.919 57.9483 244.23 58.5613 244.852C59.1828 245.473 59.4936 246.316 59.4936 247.38ZM54.002 246.946H58.2292C58.1952 246.359 57.9866 245.89 57.6034 245.541C57.2288 245.184 56.7563 245.005 56.1858 245.005C55.6324 245.005 55.1556 245.188 54.7555 245.554C54.3553 245.912 54.1041 246.376 54.002 246.946Z" fill="white" fill-opacity="0.6"/>
</svg>
