<svg width="52" height="252" viewBox="0 0 52 252" fill="none" xmlns="http://www.w3.org/2000/svg">
    <g opacity="0.2">
        <g opacity="0.8">
            <path fill-rule="evenodd" clip-rule="evenodd" d="M1.53149 227.341L26.4009 234.447V227.341H1.53149Z" fill="#805AD5"/>
            <rect x="1.53149" y="28.386" width="24.8694" height="198.955" fill="#805AD5"/>
        </g>
        <g opacity="0.6">
            <path fill-rule="evenodd" clip-rule="evenodd" d="M26.4009 234.447L51.2703 227.341H26.4009L26.4009 234.447Z" fill="#805AD5"/>
            <rect width="24.8694" height="198.955" transform="matrix(-1 0 0 1 51.2703 28.386)" fill="#805AD5"/>
        </g>
        <rect width="25.8646" height="25.8646" transform="matrix(0.961524 0.274721 -0.961524 0.274721 26.4009 21.2805)" fill="#805AD5"/>
    </g>
    <g opacity="0.8">
        <path fill-rule="evenodd" clip-rule="evenodd" d="M1.53149 227.338L26.4009 234.444V227.338L1.53149 227.338Z" fill="#805AD5"/>
        <rect x="1.53149" y="145.624" width="24.8694" height="81.7137" fill="#F7F4FF"/>
    </g>
    <g opacity="0.6">
        <path fill-rule="evenodd" clip-rule="evenodd" d="M26.4009 234.444L51.2703 227.338L26.4009 227.338L26.4009 234.444Z" fill="#805AD5"/>
        <rect width="24.8694" height="81.7137" transform="matrix(-1 0 0 1 51.2703 145.624)" fill="#DCCDFF"/>
    </g>
    <rect width="25.8646" height="25.8646" transform="matrix(0.961524 0.274721 -0.961524 0.274721 26.4009 138.519)" fill="#805AD5"/>
    <path d="M14.2884 11.5765C13.1515 11.5765 12.0762 11.2307 11.0625 10.5391L11.702 9.38797C12.6304 9.97536 13.4878 10.2691 14.2742 10.2691C14.9279 10.2691 15.4442 10.108 15.8232 9.78588C16.2116 9.45429 16.4058 9.01848 16.4058 8.47846C16.4058 7.93844 16.2021 7.4979 15.7947 7.15683C15.3968 6.81576 14.8805 6.64523 14.2457 6.64523H12.9525V5.38045H14.2315C14.8094 5.38045 15.2831 5.22412 15.6526 4.91148C16.0221 4.58936 16.2069 4.17724 16.2069 3.67512C16.2069 3.17299 16.0316 2.77508 15.6811 2.48138C15.3305 2.17821 14.8805 2.02663 14.331 2.02663C13.6015 2.02663 12.8341 2.33454 12.0288 2.95035L11.304 1.95557C11.683 1.57661 12.152 1.27818 12.7109 1.06028C13.2794 0.832899 13.8573 0.71921 14.4447 0.71921C15.3826 0.71921 16.1548 0.984484 16.7611 1.51503C17.358 2.0361 17.6564 2.69455 17.6564 3.49037C17.6564 4.04934 17.4906 4.54673 17.159 4.98254C16.8274 5.41834 16.3869 5.72151 15.8374 5.89204V5.94889C16.4627 6.091 16.9601 6.39891 17.3295 6.87261C17.699 7.33684 17.8838 7.88633 17.8838 8.52109C17.8838 9.42113 17.5474 10.1554 16.8748 10.7238C16.2116 11.2923 15.3495 11.5765 14.2884 11.5765ZM22.8251 0.71921C24.0473 0.71921 24.9757 1.18818 25.6105 2.12611C26.2547 3.05457 26.5768 4.29093 26.5768 5.8352C26.5768 6.61207 26.4963 7.33684 26.3353 8.0095C26.1742 8.68215 25.9279 9.28849 25.5963 9.82851C25.2647 10.3685 24.8194 10.7949 24.2604 11.1075C23.7109 11.4202 23.0714 11.5765 22.3419 11.5765C21.224 11.5765 20.3145 11.2828 19.6134 10.6954L20.1534 9.60114C20.8166 10.0938 21.5319 10.3401 22.2993 10.3401C23.2846 10.3401 24.0236 9.93273 24.5162 9.11796C25.0089 8.29372 25.2552 7.28473 25.2552 6.091C25.0184 6.55523 24.6536 6.92945 24.161 7.21368C23.6778 7.4979 23.133 7.64001 22.5267 7.64001C21.5793 7.64001 20.7929 7.31789 20.1677 6.67365C19.5424 6.03889 19.2297 5.22886 19.2297 4.24356C19.2297 3.22984 19.566 2.38664 20.2387 1.71399C20.9019 1.0508 21.764 0.71921 22.8251 0.71921ZM24.9568 4.22935C24.9568 3.60406 24.7484 3.06878 24.3315 2.6235C23.9241 2.18769 23.4125 1.96979 22.7967 1.96979C22.1619 1.96979 21.6409 2.18769 21.2335 2.6235C20.8166 3.0593 20.6082 3.59932 20.6082 4.24356C20.6082 4.87832 20.8119 5.39939 21.2193 5.80678C21.6267 6.21416 22.143 6.41785 22.7683 6.41785C23.3841 6.41785 23.9004 6.20943 24.3173 5.79257C24.7436 5.38518 24.9568 4.86411 24.9568 4.22935ZM32.3651 5.13886C31.8345 5.64098 31.2093 5.89204 30.4892 5.89204C29.7597 5.89204 29.1297 5.64098 28.5992 5.13886C28.0781 4.62726 27.8175 4.01618 27.8175 3.30563C27.8175 2.5856 28.0781 1.97926 28.5992 1.48661C29.1202 0.97501 29.7503 0.71921 30.4892 0.71921C31.2093 0.71921 31.8345 0.97501 32.3651 1.48661C32.8862 1.97926 33.1467 2.5856 33.1467 3.30563C33.1467 4.01618 32.8862 4.62726 32.3651 5.13886ZM30.3897 11.4059H28.9686L36.6995 0.903955H38.1348L30.3897 11.4059ZM30.4892 1.77083C30.0439 1.77083 29.6745 1.91768 29.3808 2.21137C29.0871 2.50507 28.9402 2.86982 28.9402 3.30563C28.9402 3.74143 29.0871 4.11092 29.3808 4.41409C29.6839 4.70779 30.0534 4.85464 30.4892 4.85464C30.925 4.85464 31.2898 4.70779 31.5835 4.41409C31.8866 4.11092 32.0382 3.74143 32.0382 3.30563C32.0382 2.86982 31.8866 2.50507 31.5835 2.21137C31.2898 1.91768 30.925 1.77083 30.4892 1.77083ZM34.7952 10.8233C34.2741 10.3306 34.0136 9.72904 34.0136 9.01848C34.0136 8.30793 34.2741 7.69685 34.7952 7.18525C35.3163 6.67365 35.9463 6.41785 36.6853 6.41785C37.4242 6.41785 38.0543 6.67365 38.5753 7.18525C39.1059 7.69685 39.3712 8.30793 39.3712 9.01848C39.3712 9.71956 39.1059 10.3212 38.5753 10.8233C38.0448 11.3254 37.4148 11.5765 36.6853 11.5765C35.9558 11.5765 35.3257 11.3254 34.7952 10.8233ZM36.6853 10.5391C37.1305 10.5391 37.5 10.397 37.7937 10.1127C38.0969 9.81904 38.2485 9.45429 38.2485 9.01848C38.2485 8.5732 38.0969 8.19898 37.7937 7.89581C37.5 7.59264 37.1305 7.44105 36.6853 7.44105C36.2495 7.44105 35.88 7.59264 35.5768 7.89581C35.2831 8.19898 35.1363 8.5732 35.1363 9.01848C35.1363 9.44482 35.2878 9.80483 35.591 10.0985C35.8942 10.3922 36.2589 10.5391 36.6853 10.5391Z" fill="white" fill-opacity="0.6"/>
    <path d="M5.9923 245.837C6.55423 245.991 6.98845 246.293 7.29496 246.744C7.60999 247.187 7.7675 247.702 7.7675 248.29C7.7675 249.03 7.50782 249.665 6.98845 250.192C6.47761 250.729 5.76242 250.997 4.84289 250.997H0.947679V241.559H4.67687C5.49422 241.559 6.12853 241.797 6.57978 242.274C7.03954 242.743 7.26942 243.292 7.26942 243.922C7.26942 244.356 7.15448 244.748 6.9246 245.097C6.69472 245.446 6.38395 245.693 5.9923 245.837ZM4.51084 242.747H2.21203V245.378H4.47253C4.92378 245.378 5.28563 245.246 5.55808 244.982C5.83053 244.709 5.96676 244.382 5.96676 243.998C5.96676 243.649 5.83053 243.356 5.55808 243.117C5.29414 242.87 4.94506 242.747 4.51084 242.747ZM2.21203 249.797H4.63855C5.20049 249.797 5.63896 249.639 5.95399 249.324C6.28604 249.009 6.45206 248.634 6.45206 248.2C6.45206 247.732 6.28178 247.34 5.94122 247.025C5.60916 246.702 5.15792 246.54 4.58747 246.54H2.21203V249.797ZM9.92423 243.181C9.66881 243.181 9.45595 243.1 9.28567 242.938C9.11539 242.768 9.03025 242.555 9.03025 242.3C9.03025 242.053 9.11539 241.849 9.28567 241.687C9.45595 241.525 9.66881 241.444 9.92423 241.444C10.1626 241.444 10.367 241.529 10.5372 241.7C10.7075 241.861 10.7927 242.061 10.7927 242.3C10.7927 242.555 10.7075 242.768 10.5372 242.938C10.367 243.1 10.1626 243.181 9.92423 243.181ZM10.5117 244.152V250.997H9.28567V244.152H10.5117ZM13.6421 250.997H12.4161V244.152H13.6166V245.122C14.0508 244.356 14.7745 243.973 15.7877 243.973C16.554 243.973 17.1968 244.22 17.7162 244.714C18.2355 245.207 18.4952 245.918 18.4952 246.846V250.997H17.2819V247.191C17.2819 246.536 17.1202 246.025 16.7966 245.659C16.4816 245.293 16.0602 245.109 15.5323 245.109C14.9789 245.109 14.5234 245.305 14.1658 245.697C13.8167 246.097 13.6421 246.599 13.6421 247.204V250.997ZM25.7258 245.148V244.152H26.9007V250.997H25.7258V250.026C25.1128 250.784 24.3082 251.163 23.312 251.163C22.3244 251.163 21.507 250.814 20.86 250.116C20.2129 249.418 19.8894 248.553 19.8894 247.523C19.8894 246.493 20.2129 245.65 20.86 244.995C21.507 244.322 22.3244 243.986 23.312 243.986C24.2826 243.986 25.0872 244.373 25.7258 245.148ZM25.8024 247.562C25.8024 246.872 25.5853 246.293 25.1511 245.825C24.7169 245.348 24.1507 245.109 23.4525 245.109C22.7544 245.109 22.1924 245.348 21.7667 245.825C21.341 246.301 21.1282 246.885 21.1282 247.574C21.1282 248.264 21.341 248.847 21.7667 249.324C22.1924 249.801 22.7544 250.039 23.4525 250.039C24.1507 250.039 24.7169 249.801 25.1511 249.324C25.5853 248.856 25.8024 248.268 25.8024 247.562ZM30.0302 250.997H28.8041V244.152H30.0046V245.122C30.4389 244.356 31.1626 243.973 32.1757 243.973C32.942 243.973 33.5848 244.22 34.1042 244.714C34.6236 245.207 34.8832 245.918 34.8832 246.846V250.997H33.67V247.191C33.67 246.536 33.5082 246.025 33.1847 245.659C32.8696 245.293 32.4482 245.109 31.9203 245.109C31.3669 245.109 30.9114 245.305 30.5538 245.697C30.2047 246.097 30.0302 246.599 30.0302 247.204V250.997ZM39.8916 251.15C38.8274 251.15 37.9589 250.814 37.2863 250.141C36.6137 249.469 36.2774 248.613 36.2774 247.574C36.2774 246.536 36.618 245.676 37.2991 244.995C37.9802 244.322 38.8657 243.986 39.9555 243.986C40.6281 243.986 41.2454 244.147 41.8073 244.471C42.3778 244.794 42.795 245.229 43.0589 245.774L42.05 246.361C41.8201 245.969 41.5178 245.663 41.1432 245.442C40.7771 245.22 40.3812 245.109 39.9555 245.109C39.2573 245.109 38.6741 245.344 38.2058 245.812C37.7461 246.289 37.5162 246.876 37.5162 247.574C37.5162 248.264 37.7418 248.847 38.1931 249.324C38.6358 249.792 39.202 250.026 39.8916 250.026C40.3173 250.026 40.726 249.911 41.1177 249.682C41.5178 249.452 41.8158 249.158 42.0117 248.8L43.0333 249.388C42.7439 249.924 42.3182 250.35 41.7562 250.665C41.1773 250.988 40.5557 251.15 39.8916 251.15ZM50.7041 247.447C50.7041 247.532 50.6914 247.74 50.6658 248.072H45.2125C45.3232 248.677 45.5786 249.154 45.9788 249.503C46.379 249.852 46.9239 250.026 47.6135 250.026C48.0222 250.026 48.4436 249.958 48.8779 249.822C49.3121 249.677 49.6867 249.49 50.0017 249.26L50.5254 250.192C50.1678 250.465 49.725 250.695 49.1971 250.882C48.6693 251.061 48.1329 251.15 47.588 251.15C46.9664 251.15 46.413 251.048 45.9277 250.844C45.4509 250.639 45.0721 250.363 44.7911 250.014C44.5101 249.665 44.2973 249.281 44.1525 248.864C44.0078 248.447 43.9354 248.009 43.9354 247.549C43.9354 246.527 44.2547 245.676 44.8933 244.995C45.5403 244.322 46.3747 243.986 47.3964 243.986C48.367 243.986 49.1588 244.296 49.7719 244.918C50.3934 245.539 50.7041 246.382 50.7041 247.447ZM45.2125 247.012H49.4398C49.4057 246.425 49.1971 245.957 48.814 245.608C48.4394 245.25 47.9669 245.071 47.3964 245.071C46.843 245.071 46.3662 245.254 45.966 245.62C45.5659 245.978 45.3147 246.442 45.2125 247.012Z" fill="white" fill-opacity="0.6"/>
</svg>
