<svg width="431" height="375" viewBox="0 0 431 375" fill="none" xmlns="http://www.w3.org/2000/svg">
<mask id="mask0_2_75" style="mask-type:alpha" maskUnits="userSpaceOnUse" x="0" y="54" width="431" height="313">
<path d="M417.926 54H12.9256C5.78699 54 0 59.787 0 66.9256V353.872C0 361.011 5.78699 366.798 12.9256 366.798H417.926C425.065 366.798 430.852 361.011 430.852 353.872V66.9256C430.852 59.787 425.065 54 417.926 54Z" fill="#212734"/>
</mask>
<g mask="url(#mask0_2_75)">
<path d="M7.9951 289.697H4.05746C2.30941 289.697 0.892334 291.114 0.892334 292.862V368.632C0.892334 370.38 2.30941 371.797 4.05746 371.797H7.9951C9.74316 371.797 11.1602 370.38 11.1602 368.632V292.862C11.1602 291.114 9.74316 289.697 7.9951 289.697Z" fill="url(#paint0_linear_2_75)"/>
<path d="M19.0344 270.538H15.0968C13.3487 270.538 11.9317 271.955 11.9317 273.703V368.63C11.9317 370.378 13.3487 371.795 15.0968 371.795H19.0344C20.7825 371.795 22.1996 370.378 22.1996 368.63V273.703C22.1996 271.955 20.7825 270.538 19.0344 270.538Z" fill="url(#paint1_linear_2_75)"/>
<path d="M30.0778 259.593H26.1402C24.3921 259.593 22.9751 261.01 22.9751 262.758V368.632C22.9751 370.38 24.3921 371.797 26.1402 371.797H30.0778C31.8259 371.797 33.243 370.38 33.243 368.632V262.758C33.243 261.01 31.8259 259.593 30.0778 259.593Z" fill="url(#paint2_linear_2_75)"/>
<path d="M361.434 289.697H357.496C355.748 289.697 354.331 291.114 354.331 292.862V368.632C354.331 370.38 355.748 371.797 357.496 371.797H361.434C363.182 371.797 364.599 370.38 364.599 368.632V292.862C364.599 291.114 363.182 289.697 361.434 289.697Z" fill="url(#paint3_linear_2_75)"/>
<path d="M372.474 270.538H368.536C366.788 270.538 365.371 271.955 365.371 273.703V368.63C365.371 370.378 366.788 371.795 368.536 371.795H372.474C374.222 371.795 375.639 370.378 375.639 368.63V273.703C375.639 271.955 374.222 270.538 372.474 270.538Z" fill="url(#paint4_linear_2_75)"/>
<path d="M383.517 259.593H379.579C377.831 259.593 376.414 261.01 376.414 262.758V368.632C376.414 370.38 377.831 371.797 379.579 371.797H383.517C385.265 371.797 386.682 370.38 386.682 368.632V262.758C386.682 261.01 385.265 259.593 383.517 259.593Z" fill="url(#paint5_linear_2_75)"/>
<path d="M394.56 259.593H390.622C388.874 259.593 387.457 261.01 387.457 262.758V368.632C387.457 370.38 388.874 371.797 390.622 371.797H394.56C396.308 371.797 397.725 370.38 397.725 368.632V262.758C397.725 261.01 396.308 259.593 394.56 259.593Z" fill="url(#paint6_linear_2_75)"/>
<path d="M405.604 269.174H401.666C399.918 269.174 398.501 270.591 398.501 272.339V368.635C398.501 370.383 399.918 371.8 401.666 371.8H405.604C407.352 371.8 408.769 370.383 408.769 368.635V272.339C408.769 270.591 407.352 269.174 405.604 269.174Z" fill="url(#paint7_linear_2_75)"/>
<path d="M416.647 288.329H412.709C410.961 288.329 409.544 289.746 409.544 291.494V368.632C409.544 370.381 410.961 371.798 412.709 371.798H416.647C418.395 371.798 419.812 370.381 419.812 368.632V291.494C419.812 289.746 418.395 288.329 416.647 288.329Z" fill="url(#paint8_linear_2_75)"/>
<path d="M427.687 304.75H423.749C422.001 304.75 420.584 306.167 420.584 307.915V368.633C420.584 370.381 422.001 371.799 423.749 371.799H427.687C429.435 371.799 430.852 370.381 430.852 368.633V307.915C430.852 306.167 429.435 304.75 427.687 304.75Z" fill="url(#paint9_linear_2_75)"/>
</g>
<path d="M41.142 261.101H37.2043C35.4563 261.101 34.0392 262.518 34.0392 264.266V370.14C34.0392 371.888 35.4563 373.305 37.2043 373.305H41.142C42.89 373.305 44.3071 371.888 44.3071 370.14V264.266C44.3071 262.518 42.89 261.101 41.142 261.101Z" fill="url(#paint10_linear_2_75)"/>
<path d="M52.1858 270.682H48.2481C46.5001 270.682 45.083 272.099 45.083 273.847V370.143C45.083 371.891 46.5001 373.308 48.2481 373.308H52.1858C53.9338 373.308 55.3509 371.891 55.3509 370.143V273.847C55.3509 272.099 53.9338 270.682 52.1858 270.682Z" fill="url(#paint11_linear_2_75)"/>
<path d="M63.2292 289.837H59.2915C57.5435 289.837 56.1264 291.254 56.1264 293.002V370.141C56.1264 371.889 57.5435 373.306 59.2915 373.306H63.2292C64.9772 373.306 66.3943 371.889 66.3943 370.141V293.002C66.3943 291.254 64.9772 289.837 63.2292 289.837Z" fill="url(#paint12_linear_2_75)"/>
<path d="M74.2682 306.258H70.3305C68.5825 306.258 67.1654 307.675 67.1654 309.423V370.142C67.1654 371.89 68.5825 373.307 70.3305 373.307H74.2682C76.0162 373.307 77.4333 371.89 77.4333 370.142V309.423C77.4333 307.675 76.0162 306.258 74.2682 306.258Z" fill="url(#paint13_linear_2_75)"/>
<path d="M85.3155 319.941H81.3778C79.6298 319.941 78.2127 321.358 78.2127 323.106V370.141C78.2127 371.889 79.6298 373.306 81.3778 373.306H85.3155C87.0635 373.306 88.4806 371.889 88.4806 370.141V323.106C88.4806 321.358 87.0635 319.941 85.3155 319.941Z" fill="url(#paint14_linear_2_75)"/>
<path d="M96.3591 321.309H92.4214C90.6734 321.309 89.2563 322.726 89.2563 324.474V370.141C89.2563 371.889 90.6734 373.306 92.4214 373.306H96.3591C98.1071 373.306 99.5242 371.889 99.5242 370.141V324.474C99.5242 322.726 98.1071 321.309 96.3591 321.309Z" fill="url(#paint15_linear_2_75)"/>
<path d="M107.394 314.468H103.456C101.708 314.468 100.291 315.885 100.291 317.633V370.142C100.291 371.89 101.708 373.307 103.456 373.307H107.394C109.142 373.307 110.559 371.89 110.559 370.142V317.633C110.559 315.885 109.142 314.468 107.394 314.468Z" fill="url(#paint16_linear_2_75)"/>
<path d="M118.442 307.627H114.504C112.756 307.627 111.339 309.044 111.339 310.792V370.142C111.339 371.89 112.756 373.307 114.504 373.307H118.442C120.19 373.307 121.607 371.89 121.607 370.142V310.792C121.607 309.044 120.19 307.627 118.442 307.627Z" fill="url(#paint17_linear_2_75)"/>
<path d="M129.485 302.15H125.547C123.799 302.15 122.382 303.567 122.382 305.315V370.139C122.382 371.887 123.799 373.304 125.547 373.304H129.485C131.233 373.304 132.65 371.887 132.65 370.139V305.315C132.65 303.567 131.233 302.15 129.485 302.15Z" fill="url(#paint18_linear_2_75)"/>
<path d="M140.525 296.681H136.587C134.839 296.681 133.422 298.098 133.422 299.846V370.143C133.422 371.891 134.839 373.308 136.587 373.308H140.525C142.273 373.308 143.69 371.891 143.69 370.143V299.846C143.69 298.098 142.273 296.681 140.525 296.681Z" fill="url(#paint19_linear_2_75)"/>
<path d="M151.568 287.1H147.63C145.882 287.1 144.465 288.517 144.465 290.265V370.14C144.465 371.889 145.882 373.306 147.63 373.306H151.568C153.316 373.306 154.733 371.889 154.733 370.14V290.265C154.733 288.517 153.316 287.1 151.568 287.1Z" fill="url(#paint20_linear_2_75)"/>
<path d="M162.615 272.046H158.677C156.929 272.046 155.512 273.463 155.512 275.211V370.138C155.512 371.886 156.929 373.303 158.677 373.303H162.615C164.363 373.303 165.78 371.886 165.78 370.138V275.211C165.78 273.463 164.363 272.046 162.615 272.046Z" fill="url(#paint21_linear_2_75)"/>
<path d="M173.658 248.787H169.72C167.972 248.787 166.555 250.204 166.555 251.952V370.141C166.555 371.889 167.972 373.306 169.72 373.306H173.658C175.406 373.306 176.823 371.889 176.823 370.141V251.952C176.823 250.204 175.406 248.787 173.658 248.787Z" fill="url(#paint22_linear_2_75)"/>
<path d="M184.698 232.368H180.76C179.012 232.368 177.595 233.785 177.595 235.533V370.142C177.595 371.89 179.012 373.307 180.76 373.307H184.698C186.446 373.307 187.863 371.89 187.863 370.142V235.533C187.863 233.785 186.446 232.368 184.698 232.368Z" fill="url(#paint23_linear_2_75)"/>
<path d="M195.741 220.051H191.803C190.055 220.051 188.638 221.468 188.638 223.216V370.14C188.638 371.888 190.055 373.305 191.803 373.305H195.741C197.489 373.305 198.906 371.888 198.906 370.14V223.216C198.906 221.468 197.489 220.051 195.741 220.051Z" fill="url(#paint24_linear_2_75)"/>
<path d="M206.785 222.788H202.847C201.099 222.788 199.682 224.205 199.682 225.953V370.141C199.682 371.889 201.099 373.306 202.847 373.306H206.785C208.533 373.306 209.95 371.889 209.95 370.141V225.953C209.95 224.205 208.533 222.788 206.785 222.788Z" fill="url(#paint25_linear_2_75)"/>
<path d="M217.824 232.368H213.886C212.138 232.368 210.721 233.785 210.721 235.533V370.142C210.721 371.89 212.138 373.307 213.886 373.307H217.824C219.572 373.307 220.989 371.89 220.989 370.142V235.533C220.989 233.785 219.572 232.368 217.824 232.368Z" fill="url(#paint26_linear_2_75)"/>
<path d="M228.867 247.419H224.929C223.181 247.419 221.764 248.836 221.764 250.584V370.142C221.764 371.89 223.181 373.307 224.929 373.307H228.867C230.615 373.307 232.032 371.89 232.032 370.142V250.584C232.032 248.836 230.615 247.419 228.867 247.419Z" fill="url(#paint27_linear_2_75)"/>
<path d="M239.915 259.733H235.977C234.229 259.733 232.812 261.15 232.812 262.898V370.141C232.812 371.889 234.229 373.306 235.977 373.306H239.915C241.663 373.306 243.08 371.889 243.08 370.141V262.898C243.08 261.15 241.663 259.733 239.915 259.733Z" fill="url(#paint28_linear_2_75)"/>
<path d="M250.955 263.837H247.017C245.269 263.837 243.852 265.254 243.852 267.002V370.139C243.852 371.887 245.269 373.304 247.017 373.304H250.955C252.703 373.304 254.12 371.887 254.12 370.139V267.002C254.12 265.254 252.703 263.837 250.955 263.837Z" fill="url(#paint29_linear_2_75)"/>
<path d="M261.998 261.101H258.06C256.312 261.101 254.895 262.518 254.895 264.266V370.14C254.895 371.888 256.312 373.305 258.06 373.305H261.998C263.746 373.305 265.163 371.888 265.163 370.14V264.266C265.163 262.518 263.746 261.101 261.998 261.101Z" fill="url(#paint30_linear_2_75)"/>
<path d="M273.041 254.26H269.103C267.355 254.26 265.938 255.677 265.938 257.425V370.141C265.938 371.889 267.355 373.306 269.103 373.306H273.041C274.789 373.306 276.206 371.889 276.206 370.141V257.425C276.206 255.677 274.789 254.26 273.041 254.26Z" fill="url(#paint31_linear_2_75)"/>
<path d="M284.085 248.787H280.147C278.399 248.787 276.982 250.204 276.982 251.952V370.141C276.982 371.889 278.399 373.306 280.147 373.306H284.085C285.833 373.306 287.25 371.889 287.25 370.141V251.952C287.25 250.204 285.833 248.787 284.085 248.787Z" fill="url(#paint32_linear_2_75)"/>
<path d="M295.124 244.682H291.186C289.438 244.682 288.021 246.099 288.021 247.847V370.141C288.021 371.889 289.438 373.306 291.186 373.306H295.124C296.872 373.306 298.289 371.889 298.289 370.141V247.847C298.289 246.099 296.872 244.682 295.124 244.682Z" fill="url(#paint33_linear_2_75)"/>
<path d="M306.167 246.05H302.229C300.481 246.05 299.064 247.467 299.064 249.215V370.141C299.064 371.889 300.481 373.306 302.229 373.306H306.167C307.915 373.306 309.332 371.889 309.332 370.141V249.215C309.332 247.467 307.915 246.05 306.167 246.05Z" fill="url(#paint34_linear_2_75)"/>
<path d="M317.214 252.891H313.276C311.528 252.891 310.111 254.308 310.111 256.056V370.14C310.111 371.888 311.528 373.305 313.276 373.305H317.214C318.962 373.305 320.379 371.888 320.379 370.14V256.056C320.379 254.308 318.962 252.891 317.214 252.891Z" fill="url(#paint35_linear_2_75)"/>
<path d="M328.254 265.206H324.316C322.568 265.206 321.151 266.623 321.151 268.371V370.14C321.151 371.888 322.568 373.305 324.316 373.305H328.254C330.002 373.305 331.419 371.888 331.419 370.14V268.371C331.419 266.623 330.002 265.206 328.254 265.206Z" fill="url(#paint36_linear_2_75)"/>
<path d="M339.297 281.628H335.359C333.611 281.628 332.194 283.045 332.194 284.793V370.142C332.194 371.89 333.611 373.307 335.359 373.307H339.297C341.045 373.307 342.462 371.89 342.462 370.142V284.793C342.462 283.045 341.045 281.628 339.297 281.628Z" fill="url(#paint37_linear_2_75)"/>
<path d="M350.341 281.628H346.403C344.655 281.628 343.238 283.045 343.238 284.793V370.142C343.238 371.89 344.655 373.307 346.403 373.307H350.341C352.089 373.307 353.506 371.89 353.506 370.142V284.793C353.506 283.045 352.089 281.628 350.341 281.628Z" fill="url(#paint38_linear_2_75)"/>
<defs>
<linearGradient id="paint0_linear_2_75" x1="6.02626" y1="289.697" x2="6.02626" y2="371.798" gradientUnits="userSpaceOnUse">
<stop stop-color="#937EC1" stop-opacity="0.6"/>
<stop offset="1" stop-color="#937EC1" stop-opacity="0"/>
</linearGradient>
<linearGradient id="paint1_linear_2_75" x1="17.0656" y1="270.538" x2="17.0656" y2="371.796" gradientUnits="userSpaceOnUse">
<stop stop-color="#937EC1" stop-opacity="0.6"/>
<stop offset="1" stop-color="#937EC1" stop-opacity="0"/>
</linearGradient>
<linearGradient id="paint2_linear_2_75" x1="28.1091" y1="259.593" x2="28.1091" y2="371.797" gradientUnits="userSpaceOnUse">
<stop stop-color="#937EC1" stop-opacity="0.6"/>
<stop offset="1" stop-color="#937EC1" stop-opacity="0"/>
</linearGradient>
<linearGradient id="paint3_linear_2_75" x1="359.465" y1="289.697" x2="359.465" y2="371.798" gradientUnits="userSpaceOnUse">
<stop stop-color="#937EC1" stop-opacity="0.6"/>
<stop offset="1" stop-color="#937EC1" stop-opacity="0"/>
</linearGradient>
<linearGradient id="paint4_linear_2_75" x1="370.505" y1="270.538" x2="370.505" y2="371.796" gradientUnits="userSpaceOnUse">
<stop stop-color="#937EC1" stop-opacity="0.6"/>
<stop offset="1" stop-color="#937EC1" stop-opacity="0"/>
</linearGradient>
<linearGradient id="paint5_linear_2_75" x1="381.548" y1="259.593" x2="381.548" y2="371.797" gradientUnits="userSpaceOnUse">
<stop stop-color="#937EC1" stop-opacity="0.6"/>
<stop offset="1" stop-color="#937EC1" stop-opacity="0"/>
</linearGradient>
<linearGradient id="paint6_linear_2_75" x1="392.591" y1="259.593" x2="392.591" y2="371.797" gradientUnits="userSpaceOnUse">
<stop stop-color="#937EC1" stop-opacity="0.6"/>
<stop offset="1" stop-color="#937EC1" stop-opacity="0"/>
</linearGradient>
<linearGradient id="paint7_linear_2_75" x1="403.635" y1="269.174" x2="403.635" y2="371.799" gradientUnits="userSpaceOnUse">
<stop stop-color="#937EC1" stop-opacity="0.6"/>
<stop offset="1" stop-color="#937EC1" stop-opacity="0"/>
</linearGradient>
<linearGradient id="paint8_linear_2_75" x1="414.678" y1="288.329" x2="414.678" y2="371.798" gradientUnits="userSpaceOnUse">
<stop stop-color="#937EC1" stop-opacity="0.6"/>
<stop offset="1" stop-color="#937EC1" stop-opacity="0"/>
</linearGradient>
<linearGradient id="paint9_linear_2_75" x1="425.717" y1="304.75" x2="425.717" y2="371.799" gradientUnits="userSpaceOnUse">
<stop stop-color="#937EC1" stop-opacity="0.6"/>
<stop offset="1" stop-color="#937EC1" stop-opacity="0"/>
</linearGradient>
<linearGradient id="paint10_linear_2_75" x1="39.1731" y1="261.101" x2="39.1731" y2="373.305" gradientUnits="userSpaceOnUse">
<stop stop-color="#937EC1" stop-opacity="0.6"/>
<stop offset="1" stop-color="#937EC1" stop-opacity="0"/>
</linearGradient>
<linearGradient id="paint11_linear_2_75" x1="50.2169" y1="270.682" x2="50.2169" y2="373.307" gradientUnits="userSpaceOnUse">
<stop stop-color="#937EC1" stop-opacity="0.6"/>
<stop offset="1" stop-color="#937EC1" stop-opacity="0"/>
</linearGradient>
<linearGradient id="paint12_linear_2_75" x1="61.2603" y1="289.837" x2="61.2603" y2="373.306" gradientUnits="userSpaceOnUse">
<stop stop-color="#937EC1" stop-opacity="0.6"/>
<stop offset="1" stop-color="#937EC1" stop-opacity="0"/>
</linearGradient>
<linearGradient id="paint13_linear_2_75" x1="72.2993" y1="306.258" x2="72.2993" y2="373.307" gradientUnits="userSpaceOnUse">
<stop stop-color="#937EC1" stop-opacity="0.6"/>
<stop offset="1" stop-color="#937EC1" stop-opacity="0"/>
</linearGradient>
<linearGradient id="paint14_linear_2_75" x1="83.3466" y1="319.941" x2="83.3466" y2="373.306" gradientUnits="userSpaceOnUse">
<stop stop-color="#937EC1" stop-opacity="0.6"/>
<stop offset="1" stop-color="#937EC1" stop-opacity="0"/>
</linearGradient>
<linearGradient id="paint15_linear_2_75" x1="94.3903" y1="321.309" x2="94.3903" y2="373.306" gradientUnits="userSpaceOnUse">
<stop stop-color="#937EC1" stop-opacity="0.6"/>
<stop offset="1" stop-color="#937EC1" stop-opacity="0"/>
</linearGradient>
<linearGradient id="paint16_linear_2_75" x1="105.425" y1="314.468" x2="105.425" y2="373.307" gradientUnits="userSpaceOnUse">
<stop stop-color="#937EC1" stop-opacity="0.6"/>
<stop offset="1" stop-color="#937EC1" stop-opacity="0"/>
</linearGradient>
<linearGradient id="paint17_linear_2_75" x1="116.473" y1="307.627" x2="116.473" y2="373.307" gradientUnits="userSpaceOnUse">
<stop stop-color="#937EC1" stop-opacity="0.6"/>
<stop offset="1" stop-color="#937EC1" stop-opacity="0"/>
</linearGradient>
<linearGradient id="paint18_linear_2_75" x1="127.516" y1="302.15" x2="127.516" y2="373.304" gradientUnits="userSpaceOnUse">
<stop stop-color="#937EC1" stop-opacity="0.6"/>
<stop offset="1" stop-color="#937EC1" stop-opacity="0"/>
</linearGradient>
<linearGradient id="paint19_linear_2_75" x1="138.555" y1="296.681" x2="138.555" y2="373.309" gradientUnits="userSpaceOnUse">
<stop stop-color="#937EC1" stop-opacity="0.6"/>
<stop offset="1" stop-color="#937EC1" stop-opacity="0"/>
</linearGradient>
<linearGradient id="paint20_linear_2_75" x1="149.599" y1="287.1" x2="149.599" y2="373.306" gradientUnits="userSpaceOnUse">
<stop stop-color="#937EC1" stop-opacity="0.6"/>
<stop offset="1" stop-color="#937EC1" stop-opacity="0"/>
</linearGradient>
<linearGradient id="paint21_linear_2_75" x1="160.646" y1="272.046" x2="160.646" y2="373.304" gradientUnits="userSpaceOnUse">
<stop stop-color="#937EC1" stop-opacity="0.6"/>
<stop offset="1" stop-color="#937EC1" stop-opacity="0"/>
</linearGradient>
<linearGradient id="paint22_linear_2_75" x1="171.689" y1="248.787" x2="171.689" y2="373.306" gradientUnits="userSpaceOnUse">
<stop stop-color="#937EC1" stop-opacity="0.6"/>
<stop offset="1" stop-color="#937EC1" stop-opacity="0"/>
</linearGradient>
<linearGradient id="paint23_linear_2_75" x1="182.729" y1="232.368" x2="182.729" y2="373.308" gradientUnits="userSpaceOnUse">
<stop stop-color="#937EC1" stop-opacity="0.6"/>
<stop offset="1" stop-color="#937EC1" stop-opacity="0"/>
</linearGradient>
<linearGradient id="paint24_linear_2_75" x1="193.772" y1="220.051" x2="193.772" y2="373.306" gradientUnits="userSpaceOnUse">
<stop stop-color="#937EC1" stop-opacity="0.6"/>
<stop offset="1" stop-color="#937EC1" stop-opacity="0"/>
</linearGradient>
<linearGradient id="paint25_linear_2_75" x1="204.816" y1="222.788" x2="204.816" y2="373.305" gradientUnits="userSpaceOnUse">
<stop stop-color="#937EC1" stop-opacity="0.6"/>
<stop offset="1" stop-color="#937EC1" stop-opacity="0"/>
</linearGradient>
<linearGradient id="paint26_linear_2_75" x1="215.855" y1="232.368" x2="215.855" y2="373.308" gradientUnits="userSpaceOnUse">
<stop stop-color="#937EC1" stop-opacity="0.6"/>
<stop offset="1" stop-color="#937EC1" stop-opacity="0"/>
</linearGradient>
<linearGradient id="paint27_linear_2_75" x1="226.898" y1="247.419" x2="226.898" y2="373.306" gradientUnits="userSpaceOnUse">
<stop stop-color="#937EC1" stop-opacity="0.6"/>
<stop offset="1" stop-color="#937EC1" stop-opacity="0"/>
</linearGradient>
<linearGradient id="paint28_linear_2_75" x1="237.946" y1="259.733" x2="237.946" y2="373.305" gradientUnits="userSpaceOnUse">
<stop stop-color="#937EC1" stop-opacity="0.6"/>
<stop offset="1" stop-color="#937EC1" stop-opacity="0"/>
</linearGradient>
<linearGradient id="paint29_linear_2_75" x1="248.985" y1="263.837" x2="248.985" y2="373.305" gradientUnits="userSpaceOnUse">
<stop stop-color="#937EC1" stop-opacity="0.6"/>
<stop offset="1" stop-color="#937EC1" stop-opacity="0"/>
</linearGradient>
<linearGradient id="paint30_linear_2_75" x1="260.029" y1="261.101" x2="260.029" y2="373.305" gradientUnits="userSpaceOnUse">
<stop stop-color="#937EC1" stop-opacity="0.6"/>
<stop offset="1" stop-color="#937EC1" stop-opacity="0"/>
</linearGradient>
<linearGradient id="paint31_linear_2_75" x1="271.072" y1="254.26" x2="271.072" y2="373.305" gradientUnits="userSpaceOnUse">
<stop stop-color="#937EC1" stop-opacity="0.6"/>
<stop offset="1" stop-color="#937EC1" stop-opacity="0"/>
</linearGradient>
<linearGradient id="paint32_linear_2_75" x1="282.115" y1="248.787" x2="282.115" y2="373.306" gradientUnits="userSpaceOnUse">
<stop stop-color="#937EC1" stop-opacity="0.6"/>
<stop offset="1" stop-color="#937EC1" stop-opacity="0"/>
</linearGradient>
<linearGradient id="paint33_linear_2_75" x1="293.155" y1="244.682" x2="293.155" y2="373.306" gradientUnits="userSpaceOnUse">
<stop stop-color="#937EC1" stop-opacity="0.6"/>
<stop offset="1" stop-color="#937EC1" stop-opacity="0"/>
</linearGradient>
<linearGradient id="paint34_linear_2_75" x1="304.198" y1="246.05" x2="304.198" y2="373.306" gradientUnits="userSpaceOnUse">
<stop stop-color="#937EC1" stop-opacity="0.6"/>
<stop offset="1" stop-color="#937EC1" stop-opacity="0"/>
</linearGradient>
<linearGradient id="paint35_linear_2_75" x1="315.245" y1="252.891" x2="315.245" y2="373.306" gradientUnits="userSpaceOnUse">
<stop stop-color="#937EC1" stop-opacity="0.6"/>
<stop offset="1" stop-color="#937EC1" stop-opacity="0"/>
</linearGradient>
<linearGradient id="paint36_linear_2_75" x1="326.285" y1="265.206" x2="326.285" y2="373.305" gradientUnits="userSpaceOnUse">
<stop stop-color="#937EC1" stop-opacity="0.6"/>
<stop offset="1" stop-color="#937EC1" stop-opacity="0"/>
</linearGradient>
<linearGradient id="paint37_linear_2_75" x1="337.328" y1="281.628" x2="337.328" y2="373.307" gradientUnits="userSpaceOnUse">
<stop stop-color="#937EC1" stop-opacity="0.6"/>
<stop offset="1" stop-color="#937EC1" stop-opacity="0"/>
</linearGradient>
<linearGradient id="paint38_linear_2_75" x1="348.371" y1="281.628" x2="348.371" y2="373.307" gradientUnits="userSpaceOnUse">
<stop stop-color="#937EC1" stop-opacity="0.6"/>
<stop offset="1" stop-color="#937EC1" stop-opacity="0"/>
</linearGradient>
</defs>
</svg>
